# MagicaVoxel @ Ephtracy

# group
o 

# material
mtllib big_robo_arm.mtl
usemtl palette

# normals
vn -1 0 0
vn 1 0 0
vn 0 0 1
vn 0 0 -1
vn 0 -1 0
vn 0 1 0

# texcoords
vt 0.892578 0.5
vt 0.986328 0.5

# verts
v -6 9 1
v -6 9 0.6
v -6 9 -0.6
v -6 9 -1
v -6 9.8 1
v -6 9.8 0.6
v -6 9.8 -0.6
v -6 9.8 -1
v -6 10.4 1
v -6 10.4 -1
v -6 14.6 1.2
v -6 14.6 -1.2
v -6 15.1 1
v -6 15.1 -0.9
v -6 16.2 1
v -6 16.2 -0.9
v -6 16.4 1.2
v -6 16.4 -1.2
v -5.9 15.1 1
v -5.9 15.1 -0.9
v -5.9 16.2 1
v -5.9 16.2 -0.9
v -5.5 10.7 0.7
v -5.5 10.7 -0.7
v -5.5 11.1 0.7
v -5.5 11.1 -0.7
v -5.5 11.4 0.7
v -5.5 11.4 -0.7
v -5.5 11.8 0.7
v -5.5 11.8 -0.7
v -5.5 12.1 0.7
v -5.5 12.1 -0.7
v -5.5 12.5 0.7
v -5.5 12.5 -0.7
v -5.5 12.8 0.7
v -5.5 12.8 -0.7
v -5.5 13.2 0.7
v -5.5 13.2 -0.7
v -5.5 13.5 0.7
v -5.5 13.5 -0.7
v -5.5 13.9 0.7
v -5.5 13.9 -0.7
v -5.5 14.2 0.7
v -5.5 14.2 -0.7
v -5.5 14.6 0.7
v -5.5 14.6 -0.7
v -5.3 9 0.3
v -5.3 9 -0.3
v -5.3 9.8 0.3
v -5.3 9.8 -0.3
v -5.3 10.4 0.5
v -5.3 10.4 -0.5
v -5.3 10.7 0.5
v -5.3 10.7 -0.5
v -5.3 11.1 0.5
v -5.3 11.1 -0.5
v -5.3 11.4 0.5
v -5.3 11.4 -0.5
v -5.3 11.8 0.5
v -5.3 11.8 -0.5
v -5.3 12.1 0.5
v -5.3 12.1 -0.5
v -5.3 12.5 0.5
v -5.3 12.5 -0.5
v -5.3 12.8 0.5
v -5.3 12.8 -0.5
v -5.3 13.2 0.5
v -5.3 13.2 -0.5
v -5.3 13.5 0.5
v -5.3 13.5 -0.5
v -5.3 13.9 0.5
v -5.3 13.9 -0.5
v -5.3 14.2 0.5
v -5.3 14.2 -0.5
v -4.3 9 1
v -4.3 9 0.6
v -4.3 9 -0.6
v -4.3 9 -1
v -4.3 9.8 1
v -4.3 9.8 0.6
v -4.3 9.8 -0.6
v -4.3 9.8 -1
v -5.6 9 1
v -5.6 9 0.6
v -5.6 9 -0.6
v -5.6 9 -1
v -5.6 9.8 1
v -5.6 9.8 0.6
v -5.6 9.8 -0.6
v -5.6 9.8 -1
v -4.6 9 0.3
v -4.6 9 -0.3
v -4.6 9.8 0.3
v -4.6 9.8 -0.3
v -4.6 10.4 0.5
v -4.6 10.4 -0.5
v -4.6 10.7 0.5
v -4.6 10.7 -0.5
v -4.6 11.1 0.5
v -4.6 11.1 -0.5
v -4.6 11.4 0.5
v -4.6 11.4 -0.5
v -4.6 11.8 0.5
v -4.6 11.8 -0.5
v -4.6 12.1 0.5
v -4.6 12.1 -0.5
v -4.6 12.5 0.5
v -4.6 12.5 -0.5
v -4.6 12.8 0.5
v -4.6 12.8 -0.5
v -4.6 13.2 0.5
v -4.6 13.2 -0.5
v -4.6 13.5 0.5
v -4.6 13.5 -0.5
v -4.6 13.9 0.5
v -4.6 13.9 -0.5
v -4.6 14.2 0.5
v -4.6 14.2 -0.5
v -4.4 10.7 0.7
v -4.4 10.7 -0.7
v -4.4 11.1 0.7
v -4.4 11.1 -0.7
v -4.4 11.4 0.7
v -4.4 11.4 -0.7
v -4.4 11.8 0.7
v -4.4 11.8 -0.7
v -4.4 12.1 0.7
v -4.4 12.1 -0.7
v -4.4 12.5 0.7
v -4.4 12.5 -0.7
v -4.4 12.8 0.7
v -4.4 12.8 -0.7
v -4.4 13.2 0.7
v -4.4 13.2 -0.7
v -4.4 13.5 0.7
v -4.4 13.5 -0.7
v -4.4 13.9 0.7
v -4.4 13.9 -0.7
v -4.4 14.2 0.7
v -4.4 14.2 -0.7
v -4.4 14.6 0.7
v -4.4 14.6 -0.7
v -4.1 15.1 1
v -4.1 15.1 -0.9
v -4.1 16.2 1
v -4.1 16.2 -0.9
v -4 14.8 1
v -4 14.8 -1
v -4 15.1 1
v -4 15.1 -0.9
v -4 16.2 -0.9
v -4 16.2 -1
v -3.9 9 1
v -3.9 9 0.6
v -3.9 9 -0.6
v -3.9 9 -1
v -3.9 9.8 1
v -3.9 9.8 0.6
v -3.9 9.8 -0.6
v -3.9 9.8 -1
v -3.9 10.4 1
v -3.9 10.4 -1
v -3.9 14.6 1.2
v -3.9 14.6 -1.2
v -3.9 14.8 1
v -3.9 14.8 -1
v -3.9 16.2 1
v -3.9 16.2 -1
v -3.9 16.4 1.2
v -3.9 16.4 -1.2
v -6 14.6 1.2
v -6 16.4 1.2
v -5.8 14.8 1.2
v -5.8 16.2 1.2
v -4.1 14.8 1.2
v -4.1 16.2 1.2
v -3.9 14.6 1.2
v -3.9 16.4 1.2
v -6 9 1
v -6 9.8 1
v -6 10.4 1
v -5.6 9 1
v -5.6 9.8 1
v -4.3 9 1
v -4.3 9.8 1
v -3.9 9 1
v -3.9 9.8 1
v -3.9 10.4 1
v -5.5 10.7 0.7
v -5.5 11.1 0.7
v -5.5 11.4 0.7
v -5.5 11.8 0.7
v -5.5 12.1 0.7
v -5.5 12.5 0.7
v -5.5 12.8 0.7
v -5.5 13.2 0.7
v -5.5 13.5 0.7
v -5.5 13.9 0.7
v -5.5 14.2 0.7
v -5.5 14.6 0.7
v -4.4 10.7 0.7
v -4.4 11.1 0.7
v -4.4 11.4 0.7
v -4.4 11.8 0.7
v -4.4 12.1 0.7
v -4.4 12.5 0.7
v -4.4 12.8 0.7
v -4.4 13.2 0.7
v -4.4 13.5 0.7
v -4.4 13.9 0.7
v -4.4 14.2 0.7
v -4.4 14.6 0.7
v -5.3 10.4 0.5
v -5.3 10.7 0.5
v -5.3 11.1 0.5
v -5.3 11.4 0.5
v -5.3 11.8 0.5
v -5.3 12.1 0.5
v -5.3 12.5 0.5
v -5.3 12.8 0.5
v -5.3 13.2 0.5
v -5.3 13.5 0.5
v -5.3 13.9 0.5
v -5.3 14.2 0.5
v -4.6 10.4 0.5
v -4.6 10.7 0.5
v -4.6 11.1 0.5
v -4.6 11.4 0.5
v -4.6 11.8 0.5
v -4.6 12.1 0.5
v -4.6 12.5 0.5
v -4.6 12.8 0.5
v -4.6 13.2 0.5
v -4.6 13.5 0.5
v -4.6 13.9 0.5
v -4.6 14.2 0.5
v -5.3 9 0.3
v -5.3 9.8 0.3
v -4.6 9 0.3
v -4.6 9.8 0.3
v -6 9 -0.6
v -6 9.8 -0.6
v -5.6 9 -0.6
v -5.6 9.8 -0.6
v -4.3 9 -0.6
v -4.3 9.8 -0.6
v -3.9 9 -0.6
v -3.9 9.8 -0.6
v -6 15.1 -0.9
v -6 16.2 -0.9
v -5.9 15.1 -0.9
v -5.9 16.2 -0.9
v -4.1 15.1 -0.9
v -4.1 16.2 -0.9
v -4 15.1 -0.9
v -4 16.2 -0.9
v -4 14.8 -1
v -4 16.2 -1
v -3.9 14.8 -1
v -3.9 16.2 -1
v -6 15.1 1
v -6 16.2 1
v -5.9 15.1 1
v -5.9 16.2 1
v -4.1 15.1 1
v -4.1 16.2 1
v -4 14.8 1
v -4 15.1 1
v -3.9 14.8 1
v -3.9 16.2 1
v -6 9 0.6
v -6 9.8 0.6
v -5.6 9 0.6
v -5.6 9.8 0.6
v -4.3 9 0.6
v -4.3 9.8 0.6
v -3.9 9 0.6
v -3.9 9.8 0.6
v -5.3 9 -0.3
v -5.3 9.8 -0.3
v -4.6 9 -0.3
v -4.6 9.8 -0.3
v -5.3 10.4 -0.5
v -5.3 10.7 -0.5
v -5.3 11.1 -0.5
v -5.3 11.4 -0.5
v -5.3 11.8 -0.5
v -5.3 12.1 -0.5
v -5.3 12.5 -0.5
v -5.3 12.8 -0.5
v -5.3 13.2 -0.5
v -5.3 13.5 -0.5
v -5.3 13.9 -0.5
v -5.3 14.2 -0.5
v -4.6 10.4 -0.5
v -4.6 10.7 -0.5
v -4.6 11.1 -0.5
v -4.6 11.4 -0.5
v -4.6 11.8 -0.5
v -4.6 12.1 -0.5
v -4.6 12.5 -0.5
v -4.6 12.8 -0.5
v -4.6 13.2 -0.5
v -4.6 13.5 -0.5
v -4.6 13.9 -0.5
v -4.6 14.2 -0.5
v -5.5 10.7 -0.7
v -5.5 11.1 -0.7
v -5.5 11.4 -0.7
v -5.5 11.8 -0.7
v -5.5 12.1 -0.7
v -5.5 12.5 -0.7
v -5.5 12.8 -0.7
v -5.5 13.2 -0.7
v -5.5 13.5 -0.7
v -5.5 13.9 -0.7
v -5.5 14.2 -0.7
v -5.5 14.6 -0.7
v -4.4 10.7 -0.7
v -4.4 11.1 -0.7
v -4.4 11.4 -0.7
v -4.4 11.8 -0.7
v -4.4 12.1 -0.7
v -4.4 12.5 -0.7
v -4.4 12.8 -0.7
v -4.4 13.2 -0.7
v -4.4 13.5 -0.7
v -4.4 13.9 -0.7
v -4.4 14.2 -0.7
v -4.4 14.6 -0.7
v -6 9 -1
v -6 9.8 -1
v -6 10.4 -1
v -5.6 9 -1
v -5.6 9.8 -1
v -4.3 9 -1
v -4.3 9.8 -1
v -3.9 9 -1
v -3.9 9.8 -1
v -3.9 10.4 -1
v -6 14.6 -1.2
v -6 16.4 -1.2
v -5.8 14.7 -1.2
v -5.8 16.2 -1.2
v -4.1 14.7 -1.2
v -4.1 16.2 -1.2
v -3.9 14.6 -1.2
v -3.9 16.4 -1.2
v -6 9 1
v -5.6 9 1
v -4.3 9 1
v -3.9 9 1
v -6 9 0.6
v -5.6 9 0.6
v -4.3 9 0.6
v -3.9 9 0.6
v -5.3 9 0.3
v -4.6 9 0.3
v -5.3 9 -0.3
v -4.6 9 -0.3
v -6 9 -0.6
v -5.6 9 -0.6
v -4.3 9 -0.6
v -3.9 9 -0.6
v -6 9 -1
v -5.6 9 -1
v -4.3 9 -1
v -3.9 9 -1
v -5.6 9.8 1
v -4.3 9.8 1
v -6 9.8 0.6
v -5.6 9.8 0.6
v -4.3 9.8 0.6
v -3.9 9.8 0.6
v -5.3 9.8 0.3
v -4.6 9.8 0.3
v -5.3 9.8 -0.3
v -4.6 9.8 -0.3
v -6 9.8 -0.6
v -5.6 9.8 -0.6
v -4.3 9.8 -0.6
v -3.9 9.8 -0.6
v -5.6 9.8 -1
v -4.3 9.8 -1
v -5.5 10.7 0.7
v -4.4 10.7 0.7
v -5.3 10.7 0.5
v -4.6 10.7 0.5
v -5.3 10.7 -0.5
v -4.6 10.7 -0.5
v -5.5 10.7 -0.7
v -4.4 10.7 -0.7
v -5.5 11.4 0.7
v -4.4 11.4 0.7
v -5.3 11.4 0.5
v -4.6 11.4 0.5
v -5.3 11.4 -0.5
v -4.6 11.4 -0.5
v -5.5 11.4 -0.7
v -4.4 11.4 -0.7
v -5.5 12.1 0.7
v -4.4 12.1 0.7
v -5.3 12.1 0.5
v -4.6 12.1 0.5
v -5.3 12.1 -0.5
v -4.6 12.1 -0.5
v -5.5 12.1 -0.7
v -4.4 12.1 -0.7
v -5.5 12.8 0.7
v -4.4 12.8 0.7
v -5.3 12.8 0.5
v -4.6 12.8 0.5
v -5.3 12.8 -0.5
v -4.6 12.8 -0.5
v -5.5 12.8 -0.7
v -4.4 12.8 -0.7
v -5.5 13.5 0.7
v -4.4 13.5 0.7
v -5.3 13.5 0.5
v -4.6 13.5 0.5
v -5.3 13.5 -0.5
v -4.6 13.5 -0.5
v -5.5 13.5 -0.7
v -4.4 13.5 -0.7
v -5.5 14.2 0.7
v -4.4 14.2 0.7
v -5.3 14.2 0.5
v -4.6 14.2 0.5
v -5.3 14.2 -0.5
v -4.6 14.2 -0.5
v -5.5 14.2 -0.7
v -4.4 14.2 -0.7
v -6 14.6 1.2
v -3.9 14.6 1.2
v -5.8 14.6 1
v -4.1 14.6 1
v -5.5 14.6 0.7
v -4.4 14.6 0.7
v -5.5 14.6 -0.7
v -4.4 14.6 -0.7
v -5.8 14.6 -1
v -4.1 14.6 -1
v -6 14.6 -1.2
v -3.9 14.6 -1.2
v -6 16.2 1
v -5.9 16.2 1
v -4.1 16.2 1
v -3.9 16.2 1
v -6 16.2 -0.9
v -5.9 16.2 -0.9
v -4.1 16.2 -0.9
v -4 16.2 -0.9
v -4 16.2 -1
v -3.9 16.2 -1
v -6 10.4 1
v -3.9 10.4 1
v -5.3 10.4 0.5
v -4.6 10.4 0.5
v -5.3 10.4 -0.5
v -4.6 10.4 -0.5
v -6 10.4 -1
v -3.9 10.4 -1
v -5.5 11.1 0.7
v -4.4 11.1 0.7
v -5.3 11.1 0.5
v -4.6 11.1 0.5
v -5.3 11.1 -0.5
v -4.6 11.1 -0.5
v -5.5 11.1 -0.7
v -4.4 11.1 -0.7
v -5.5 11.8 0.7
v -4.4 11.8 0.7
v -5.3 11.8 0.5
v -4.6 11.8 0.5
v -5.3 11.8 -0.5
v -4.6 11.8 -0.5
v -5.5 11.8 -0.7
v -4.4 11.8 -0.7
v -5.5 12.5 0.7
v -4.4 12.5 0.7
v -5.3 12.5 0.5
v -4.6 12.5 0.5
v -5.3 12.5 -0.5
v -4.6 12.5 -0.5
v -5.5 12.5 -0.7
v -4.4 12.5 -0.7
v -5.5 13.2 0.7
v -4.4 13.2 0.7
v -5.3 13.2 0.5
v -4.6 13.2 0.5
v -5.3 13.2 -0.5
v -4.6 13.2 -0.5
v -5.5 13.2 -0.7
v -4.4 13.2 -0.7
v -5.5 13.9 0.7
v -4.4 13.9 0.7
v -5.3 13.9 0.5
v -4.6 13.9 0.5
v -5.3 13.9 -0.5
v -4.6 13.9 -0.5
v -5.5 13.9 -0.7
v -4.4 13.9 -0.7
v -4 14.8 1
v -3.9 14.8 1
v -4 14.8 -1
v -3.9 14.8 -1
v -6 15.1 1
v -5.9 15.1 1
v -4.1 15.1 1
v -4 15.1 1
v -6 15.1 -0.9
v -5.9 15.1 -0.9
v -4.1 15.1 -0.9
v -4 15.1 -0.9
v -6 16.4 1.2
v -3.9 16.4 1.2
v -5.8 16.4 1
v -4.1 16.4 1
v -5.8 16.4 -1
v -4.1 16.4 -1
v -6 16.4 -1.2
v -3.9 16.4 -1.2

# faces
f 5/2/1 2/2/1 1/2/1
f 6/2/1 2/2/1 5/2/1
f 7/2/1 4/2/1 3/2/1
f 8/2/1 4/2/1 7/2/1
f 9/1/1 6/1/1 5/1/1
f 9/1/1 7/1/1 6/1/1
f 9/1/1 8/1/1 7/1/1
f 10/1/1 8/1/1 9/1/1
f 13/1/1 12/1/1 11/1/1
f 14/1/1 12/1/1 13/1/1
f 15/1/1 13/1/1 11/1/1
f 16/1/1 12/1/1 14/1/1
f 17/1/1 15/1/1 11/1/1
f 17/1/1 16/1/1 15/1/1
f 18/1/1 12/1/1 16/1/1
f 18/1/1 16/1/1 17/1/1
f 21/1/1 20/1/1 19/1/1
f 22/1/1 20/1/1 21/1/1
f 25/1/1 24/1/1 23/1/1
f 26/1/1 24/1/1 25/1/1
f 29/1/1 28/1/1 27/1/1
f 30/1/1 28/1/1 29/1/1
f 33/1/1 32/1/1 31/1/1
f 34/1/1 32/1/1 33/1/1
f 37/1/1 36/1/1 35/1/1
f 38/1/1 36/1/1 37/1/1
f 41/1/1 40/1/1 39/1/1
f 42/1/1 40/1/1 41/1/1
f 45/1/1 44/1/1 43/1/1
f 46/1/1 44/1/1 45/1/1
f 49/2/1 48/2/1 47/2/1
f 50/2/1 48/2/1 49/2/1
f 53/2/1 52/2/1 51/2/1
f 54/2/1 52/2/1 53/2/1
f 57/2/1 56/2/1 55/2/1
f 58/2/1 56/2/1 57/2/1
f 61/2/1 60/2/1 59/2/1
f 62/2/1 60/2/1 61/2/1
f 65/2/1 64/2/1 63/2/1
f 66/2/1 64/2/1 65/2/1
f 69/2/1 68/2/1 67/2/1
f 70/2/1 68/2/1 69/2/1
f 73/2/1 72/2/1 71/2/1
f 74/2/1 72/2/1 73/2/1
f 79/2/1 76/2/1 75/2/1
f 80/2/1 76/2/1 79/2/1
f 81/2/1 78/2/1 77/2/1
f 82/2/1 78/2/1 81/2/1
f 83/2/2 84/2/2 87/2/2
f 87/2/2 84/2/2 88/2/2
f 85/2/2 86/2/2 89/2/2
f 89/2/2 86/2/2 90/2/2
f 91/2/2 92/2/2 93/2/2
f 93/2/2 92/2/2 94/2/2
f 95/2/2 96/2/2 97/2/2
f 97/2/2 96/2/2 98/2/2
f 99/2/2 100/2/2 101/2/2
f 101/2/2 100/2/2 102/2/2
f 103/2/2 104/2/2 105/2/2
f 105/2/2 104/2/2 106/2/2
f 107/2/2 108/2/2 109/2/2
f 109/2/2 108/2/2 110/2/2
f 111/2/2 112/2/2 113/2/2
f 113/2/2 112/2/2 114/2/2
f 115/2/2 116/2/2 117/2/2
f 117/2/2 116/2/2 118/2/2
f 119/1/2 120/1/2 121/1/2
f 121/1/2 120/1/2 122/1/2
f 123/1/2 124/1/2 125/1/2
f 125/1/2 124/1/2 126/1/2
f 127/1/2 128/1/2 129/1/2
f 129/1/2 128/1/2 130/1/2
f 131/1/2 132/1/2 133/1/2
f 133/1/2 132/1/2 134/1/2
f 135/1/2 136/1/2 137/1/2
f 137/1/2 136/1/2 138/1/2
f 139/1/2 140/1/2 141/1/2
f 141/1/2 140/1/2 142/1/2
f 143/2/2 144/2/2 145/2/2
f 145/2/2 144/2/2 146/2/2
f 147/1/2 148/1/2 149/1/2
f 149/1/2 148/1/2 150/1/2
f 150/1/2 148/1/2 151/1/2
f 151/1/2 148/1/2 152/1/2
f 153/2/2 154/2/2 157/2/2
f 157/2/2 154/2/2 158/2/2
f 155/2/2 156/2/2 159/2/2
f 159/2/2 156/2/2 160/2/2
f 157/1/2 158/1/2 161/1/2
f 158/1/2 159/1/2 161/1/2
f 159/1/2 160/1/2 161/1/2
f 161/1/2 160/1/2 162/1/2
f 163/1/2 164/1/2 165/1/2
f 165/1/2 164/1/2 166/1/2
f 163/1/2 165/1/2 167/1/2
f 166/1/2 164/1/2 168/1/2
f 163/1/2 167/1/2 169/1/2
f 167/1/2 168/1/2 169/1/2
f 168/1/2 164/1/2 170/1/2
f 169/1/2 168/1/2 170/1/2
f 173/1/3 172/1/3 171/1/3
f 174/1/3 172/1/3 173/1/3
f 175/1/3 173/1/3 171/1/3
f 175/2/3 174/2/3 173/2/3
f 176/1/3 172/1/3 174/1/3
f 176/2/3 174/2/3 175/2/3
f 177/1/3 175/1/3 171/1/3
f 177/1/3 176/1/3 175/1/3
f 178/1/3 172/1/3 176/1/3
f 178/1/3 176/1/3 177/1/3
f 182/2/3 180/2/3 179/2/3
f 183/1/3 181/1/3 180/1/3
f 183/2/3 180/2/3 182/2/3
f 185/1/3 181/1/3 183/1/3
f 186/2/3 185/2/3 184/2/3
f 187/1/3 181/1/3 185/1/3
f 187/2/3 185/2/3 186/2/3
f 188/1/3 181/1/3 187/1/3
f 201/1/3 190/1/3 189/1/3
f 202/1/3 190/1/3 201/1/3
f 203/1/3 192/1/3 191/1/3
f 204/1/3 192/1/3 203/1/3
f 205/1/3 194/1/3 193/1/3
f 206/1/3 194/1/3 205/1/3
f 207/1/3 196/1/3 195/1/3
f 208/1/3 196/1/3 207/1/3
f 209/1/3 198/1/3 197/1/3
f 210/1/3 198/1/3 209/1/3
f 211/1/3 200/1/3 199/1/3
f 212/1/3 200/1/3 211/1/3
f 225/2/3 214/2/3 213/2/3
f 226/2/3 214/2/3 225/2/3
f 227/2/3 216/2/3 215/2/3
f 228/2/3 216/2/3 227/2/3
f 229/2/3 218/2/3 217/2/3
f 230/2/3 218/2/3 229/2/3
f 231/2/3 220/2/3 219/2/3
f 232/2/3 220/2/3 231/2/3
f 233/2/3 222/2/3 221/2/3
f 234/2/3 222/2/3 233/2/3
f 235/2/3 224/2/3 223/2/3
f 236/2/3 224/2/3 235/2/3
f 239/2/3 238/2/3 237/2/3
f 240/2/3 238/2/3 239/2/3
f 243/2/3 242/2/3 241/2/3
f 244/2/3 242/2/3 243/2/3
f 247/2/3 246/2/3 245/2/3
f 248/2/3 246/2/3 247/2/3
f 251/1/3 250/1/3 249/1/3
f 252/1/3 250/1/3 251/1/3
f 255/1/3 254/1/3 253/1/3
f 256/1/3 254/1/3 255/1/3
f 259/1/3 258/1/3 257/1/3
f 260/1/3 258/1/3 259/1/3
f 261/1/4 262/1/4 263/1/4
f 263/1/4 262/1/4 264/1/4
f 265/1/4 266/1/4 268/1/4
f 267/1/4 268/1/4 269/1/4
f 268/1/4 266/1/4 270/1/4
f 269/1/4 268/1/4 270/1/4
f 271/2/4 272/2/4 273/2/4
f 273/2/4 272/2/4 274/2/4
f 275/2/4 276/2/4 277/2/4
f 277/2/4 276/2/4 278/2/4
f 279/2/4 280/2/4 281/2/4
f 281/2/4 280/2/4 282/2/4
f 283/2/4 284/2/4 295/2/4
f 295/2/4 284/2/4 296/2/4
f 285/2/4 286/2/4 297/2/4
f 297/2/4 286/2/4 298/2/4
f 287/2/4 288/2/4 299/2/4
f 299/2/4 288/2/4 300/2/4
f 289/2/4 290/2/4 301/2/4
f 301/2/4 290/2/4 302/2/4
f 291/2/4 292/2/4 303/2/4
f 303/2/4 292/2/4 304/2/4
f 293/2/4 294/2/4 305/2/4
f 305/2/4 294/2/4 306/2/4
f 307/1/4 308/1/4 319/1/4
f 319/1/4 308/1/4 320/1/4
f 309/1/4 310/1/4 321/1/4
f 321/1/4 310/1/4 322/1/4
f 311/1/4 312/1/4 323/1/4
f 323/1/4 312/1/4 324/1/4
f 313/1/4 314/1/4 325/1/4
f 325/1/4 314/1/4 326/1/4
f 315/1/4 316/1/4 327/1/4
f 327/1/4 316/1/4 328/1/4
f 317/1/4 318/1/4 329/1/4
f 329/1/4 318/1/4 330/1/4
f 331/2/4 332/2/4 334/2/4
f 332/1/4 333/1/4 335/1/4
f 334/2/4 332/2/4 335/2/4
f 335/1/4 333/1/4 337/1/4
f 336/2/4 337/2/4 338/2/4
f 337/1/4 333/1/4 339/1/4
f 338/2/4 337/2/4 339/2/4
f 339/1/4 333/1/4 340/1/4
f 341/1/4 342/1/4 343/1/4
f 343/1/4 342/1/4 344/1/4
f 341/1/4 343/1/4 345/1/4
f 343/2/4 344/2/4 345/2/4
f 344/1/4 342/1/4 346/1/4
f 345/2/4 344/2/4 346/2/4
f 341/1/4 345/1/4 347/1/4
f 345/1/4 346/1/4 347/1/4
f 346/1/4 342/1/4 348/1/4
f 347/1/4 346/1/4 348/1/4
f 353/2/5 350/2/5 349/2/5
f 354/2/5 350/2/5 353/2/5
f 355/2/5 352/2/5 351/2/5
f 356/2/5 352/2/5 355/2/5
f 359/2/5 358/2/5 357/2/5
f 360/2/5 358/2/5 359/2/5
f 365/2/5 362/2/5 361/2/5
f 366/2/5 362/2/5 365/2/5
f 367/2/5 364/2/5 363/2/5
f 368/2/5 364/2/5 367/2/5
f 372/1/5 370/1/5 369/1/5
f 373/1/5 370/1/5 372/1/5
f 375/1/5 372/1/5 371/1/5
f 375/1/5 374/1/5 373/1/5
f 375/1/5 373/1/5 372/1/5
f 376/1/5 374/1/5 375/1/5
f 377/1/5 375/1/5 371/1/5
f 378/1/5 374/1/5 376/1/5
f 379/1/5 377/1/5 371/1/5
f 379/1/5 378/1/5 377/1/5
f 380/1/5 378/1/5 379/1/5
f 381/1/5 374/1/5 378/1/5
f 381/1/5 378/1/5 380/1/5
f 382/1/5 374/1/5 381/1/5
f 383/1/5 381/1/5 380/1/5
f 384/1/5 381/1/5 383/1/5
f 387/1/5 386/1/5 385/1/5
f 388/1/5 386/1/5 387/1/5
f 389/1/5 387/1/5 385/1/5
f 390/1/5 386/1/5 388/1/5
f 391/1/5 389/1/5 385/1/5
f 391/1/5 390/1/5 389/1/5
f 392/1/5 386/1/5 390/1/5
f 392/1/5 390/1/5 391/1/5
f 395/1/5 394/1/5 393/1/5
f 396/1/5 394/1/5 395/1/5
f 397/1/5 395/1/5 393/1/5
f 398/1/5 394/1/5 396/1/5
f 399/1/5 397/1/5 393/1/5
f 399/1/5 398/1/5 397/1/5
f 400/1/5 394/1/5 398/1/5
f 400/1/5 398/1/5 399/1/5
f 403/1/5 402/1/5 401/1/5
f 404/1/5 402/1/5 403/1/5
f 405/1/5 403/1/5 401/1/5
f 406/1/5 402/1/5 404/1/5
f 407/1/5 405/1/5 401/1/5
f 407/1/5 406/1/5 405/1/5
f 408/1/5 402/1/5 406/1/5
f 408/1/5 406/1/5 407/1/5
f 411/1/5 410/1/5 409/1/5
f 412/1/5 410/1/5 411/1/5
f 413/1/5 411/1/5 409/1/5
f 414/1/5 410/1/5 412/1/5
f 415/1/5 413/1/5 409/1/5
f 415/1/5 414/1/5 413/1/5
f 416/1/5 410/1/5 414/1/5
f 416/1/5 414/1/5 415/1/5
f 419/1/5 418/1/5 417/1/5
f 420/1/5 418/1/5 419/1/5
f 421/1/5 419/1/5 417/1/5
f 422/1/5 418/1/5 420/1/5
f 423/1/5 421/1/5 417/1/5
f 423/1/5 422/1/5 421/1/5
f 424/1/5 418/1/5 422/1/5
f 424/1/5 422/1/5 423/1/5
f 427/1/5 426/1/5 425/1/5
f 428/1/5 426/1/5 427/1/5
f 429/1/5 427/1/5 425/1/5
f 430/1/5 426/1/5 428/1/5
f 431/1/5 429/1/5 425/1/5
f 431/1/5 430/1/5 429/1/5
f 432/1/5 426/1/5 430/1/5
f 432/1/5 430/1/5 431/1/5
f 435/1/5 434/1/5 433/1/5
f 436/1/5 434/1/5 435/1/5
f 437/2/5 436/2/5 435/2/5
f 438/2/5 436/2/5 437/2/5
f 439/2/5 437/2/5 435/2/5
f 440/2/5 436/2/5 438/2/5
f 441/1/5 435/1/5 433/1/5
f 441/2/5 440/2/5 439/2/5
f 441/2/5 439/2/5 435/2/5
f 442/2/5 436/2/5 440/2/5
f 442/2/5 440/2/5 441/2/5
f 442/1/5 434/1/5 436/1/5
f 443/1/5 441/1/5 433/1/5
f 443/1/5 442/1/5 441/1/5
f 444/1/5 434/1/5 442/1/5
f 444/1/5 442/1/5 443/1/5
f 449/1/5 446/1/5 445/1/5
f 450/1/5 446/1/5 449/1/5
f 451/1/5 448/1/5 447/1/5
f 452/1/5 448/1/5 451/1/5
f 453/1/5 448/1/5 452/1/5
f 454/1/5 448/1/5 453/1/5
f 455/1/6 456/1/6 457/1/6
f 457/1/6 456/1/6 458/1/6
f 455/1/6 457/1/6 459/1/6
f 458/1/6 456/1/6 460/1/6
f 455/1/6 459/1/6 461/1/6
f 459/1/6 460/1/6 461/1/6
f 460/1/6 456/1/6 462/1/6
f 461/1/6 460/1/6 462/1/6
f 463/1/6 464/1/6 465/1/6
f 465/1/6 464/1/6 466/1/6
f 463/1/6 465/1/6 467/1/6
f 466/1/6 464/1/6 468/1/6
f 463/1/6 467/1/6 469/1/6
f 467/1/6 468/1/6 469/1/6
f 468/1/6 464/1/6 470/1/6
f 469/1/6 468/1/6 470/1/6
f 471/1/6 472/1/6 473/1/6
f 473/1/6 472/1/6 474/1/6
f 471/1/6 473/1/6 475/1/6
f 474/1/6 472/1/6 476/1/6
f 471/1/6 475/1/6 477/1/6
f 475/1/6 476/1/6 477/1/6
f 476/1/6 472/1/6 478/1/6
f 477/1/6 476/1/6 478/1/6
f 479/1/6 480/1/6 481/1/6
f 481/1/6 480/1/6 482/1/6
f 479/1/6 481/1/6 483/1/6
f 482/1/6 480/1/6 484/1/6
f 479/1/6 483/1/6 485/1/6
f 483/1/6 484/1/6 485/1/6
f 484/1/6 480/1/6 486/1/6
f 485/1/6 484/1/6 486/1/6
f 487/1/6 488/1/6 489/1/6
f 489/1/6 488/1/6 490/1/6
f 487/1/6 489/1/6 491/1/6
f 490/1/6 488/1/6 492/1/6
f 487/1/6 491/1/6 493/1/6
f 491/1/6 492/1/6 493/1/6
f 492/1/6 488/1/6 494/1/6
f 493/1/6 492/1/6 494/1/6
f 495/1/6 496/1/6 497/1/6
f 497/1/6 496/1/6 498/1/6
f 495/1/6 497/1/6 499/1/6
f 498/1/6 496/1/6 500/1/6
f 495/1/6 499/1/6 501/1/6
f 499/1/6 500/1/6 501/1/6
f 500/1/6 496/1/6 502/1/6
f 501/1/6 500/1/6 502/1/6
f 503/1/6 504/1/6 505/1/6
f 505/1/6 504/1/6 506/1/6
f 507/1/6 508/1/6 511/1/6
f 511/1/6 508/1/6 512/1/6
f 509/1/6 510/1/6 513/1/6
f 513/1/6 510/1/6 514/1/6
f 515/1/6 516/1/6 517/1/6
f 517/1/6 516/1/6 518/1/6
f 515/1/6 517/1/6 519/1/6
f 517/2/6 518/2/6 519/2/6
f 518/1/6 516/1/6 520/1/6
f 519/2/6 518/2/6 520/2/6
f 515/1/6 519/1/6 521/1/6
f 519/1/6 520/1/6 521/1/6
f 520/1/6 516/1/6 522/1/6
f 521/1/6 520/1/6 522/1/6
