# MagicaVoxel @ Ephtracy

# group
o 

# material
mtllib button.mtl
usemtl palette

# normals
vn -1 0 0
vn 1 0 0
vn 0 0 1
vn 0 0 -1
vn 0 -1 0
vn 0 1 0

# texcoords
vt 0.841797 0.5
vt 0.845703 0.5
vt 0.853516 0.5

# verts
v -0.8 0 0.3
v -0.8 0 -0.2
v -0.8 0.1 0.3
v -0.8 0.1 -0.2
v -0.7 0 0.5
v -0.7 0 0.3
v -0.7 0 -0.2
v -0.7 0 -0.4
v -0.7 0.1 0.5
v -0.7 0.1 0.3
v -0.7 0.1 -0.2
v -0.7 0.1 -0.4
v -0.6 0 0.6
v -0.6 0 0.5
v -0.6 0 -0.4
v -0.6 0 -0.5
v -0.6 0.1 0.6
v -0.6 0.1 0.5
v -0.6 0.1 -0.4
v -0.6 0.1 -0.5
v -0.5 0 0.7
v -0.5 0 0.6
v -0.5 0 -0.5
v -0.5 0 -0.6
v -0.5 0.1 0.7
v -0.5 0.1 0.6
v -0.5 0.1 -0.5
v -0.5 0.1 -0.6
v -0.3 0 0.8
v -0.3 0 0.7
v -0.3 0 -0.6
v -0.3 0 -0.7
v -0.3 0.1 0.8
v -0.3 0.1 0.7
v -0.3 0.1 -0.6
v -0.3 0.1 -0.7
v 0.2 0 0.8
v 0.2 0 0.7
v 0.2 0 -0.6
v 0.2 0 -0.7
v 0.2 0.1 0.8
v 0.2 0.1 0.7
v 0.2 0.1 -0.6
v 0.2 0.1 -0.7
v 0.4 0 0.7
v 0.4 0 0.6
v 0.4 0 -0.5
v 0.4 0 -0.6
v 0.4 0.1 0.7
v 0.4 0.1 0.6
v 0.4 0.1 -0.5
v 0.4 0.1 -0.6
v 0.5 0 0.6
v 0.5 0 0.5
v 0.5 0 -0.4
v 0.5 0 -0.5
v 0.5 0.1 0.6
v 0.5 0.1 0.5
v 0.5 0.1 -0.4
v 0.5 0.1 -0.5
v 0.6 0 0.5
v 0.6 0 0.3
v 0.6 0 -0.2
v 0.6 0 -0.4
v 0.6 0.1 0.5
v 0.6 0.1 0.3
v 0.6 0.1 -0.2
v 0.6 0.1 -0.4
v 0.7 0 0.3
v 0.7 0 -0.2
v 0.7 0.1 0.3
v 0.7 0.1 -0.2
v -0.3 0 0.8
v -0.3 0.1 0.8
v 0.2 0 0.8
v 0.2 0.1 0.8
v -0.5 0 0.7
v -0.5 0.1 0.7
v -0.3 0 0.7
v -0.3 0.1 0.7
v 0.2 0 0.7
v 0.2 0.1 0.7
v 0.4 0 0.7
v 0.4 0.1 0.7
v -0.6 0 0.6
v -0.6 0.1 0.6
v -0.5 0 0.6
v -0.5 0.1 0.6
v 0.4 0 0.6
v 0.4 0.1 0.6
v 0.5 0 0.6
v 0.5 0.1 0.6
v -0.7 0 0.5
v -0.7 0.1 0.5
v -0.6 0 0.5
v -0.6 0.1 0.5
v 0.5 0 0.5
v 0.5 0.1 0.5
v 0.6 0 0.5
v 0.6 0.1 0.5
v -0.8 0 0.3
v -0.8 0.1 0.3
v -0.7 0 0.3
v -0.7 0.1 0.3
v 0.6 0 0.3
v 0.6 0.1 0.3
v 0.7 0 0.3
v 0.7 0.1 0.3
v -0.8 0 -0.2
v -0.8 0.1 -0.2
v -0.7 0 -0.2
v -0.7 0.1 -0.2
v 0.6 0 -0.2
v 0.6 0.1 -0.2
v 0.7 0 -0.2
v 0.7 0.1 -0.2
v -0.7 0 -0.4
v -0.7 0.1 -0.4
v -0.6 0 -0.4
v -0.6 0.1 -0.4
v 0.5 0 -0.4
v 0.5 0.1 -0.4
v 0.6 0 -0.4
v 0.6 0.1 -0.4
v -0.6 0 -0.5
v -0.6 0.1 -0.5
v -0.5 0 -0.5
v -0.5 0.1 -0.5
v 0.4 0 -0.5
v 0.4 0.1 -0.5
v 0.5 0 -0.5
v 0.5 0.1 -0.5
v -0.5 0 -0.6
v -0.5 0.1 -0.6
v -0.3 0 -0.6
v -0.3 0.1 -0.6
v 0.2 0 -0.6
v 0.2 0.1 -0.6
v 0.4 0 -0.6
v 0.4 0.1 -0.6
v -0.3 0 -0.7
v -0.3 0.1 -0.7
v 0.2 0 -0.7
v 0.2 0.1 -0.7
v -0.3 0 0.8
v 0.2 0 0.8
v -0.5 0 0.7
v -0.3 0 0.7
v -0.1 0 0.7
v 0 0 0.7
v 0.2 0 0.7
v 0.4 0 0.7
v -0.6 0 0.6
v -0.5 0 0.6
v -0.4 0 0.6
v -0.3 0 0.6
v 0.2 0 0.6
v 0.3 0 0.6
v 0.4 0 0.6
v 0.5 0 0.6
v -0.7 0 0.5
v -0.6 0 0.5
v -0.5 0 0.5
v -0.4 0 0.5
v 0.3 0 0.5
v 0.4 0 0.5
v 0.5 0 0.5
v 0.6 0 0.5
v -0.6 0 0.4
v -0.5 0 0.4
v 0.4 0 0.4
v 0.5 0 0.4
v -0.8 0 0.3
v -0.7 0 0.3
v -0.6 0 0.3
v 0.5 0 0.3
v 0.6 0 0.3
v 0.7 0 0.3
v -0.1 0 0.2
v 0 0 0.2
v -0.7 0 0.1
v -0.2 0 0.1
v -0.1 0 0.1
v 0 0 0.1
v 0.1 0 0.1
v 0.6 0 0.1
v -0.7 0 0
v -0.2 0 0
v -0.1 0 0
v 0 0 0
v 0.1 0 0
v 0.6 0 0
v -0.1 0 -0.1
v 0 0 -0.1
v -0.8 0 -0.2
v -0.7 0 -0.2
v -0.6 0 -0.2
v 0.5 0 -0.2
v 0.6 0 -0.2
v 0.7 0 -0.2
v -0.6 0 -0.3
v -0.5 0 -0.3
v 0.4 0 -0.3
v 0.5 0 -0.3
v -0.7 0 -0.4
v -0.6 0 -0.4
v -0.5 0 -0.4
v -0.4 0 -0.4
v 0.3 0 -0.4
v 0.4 0 -0.4
v 0.5 0 -0.4
v 0.6 0 -0.4
v -0.6 0 -0.5
v -0.5 0 -0.5
v -0.4 0 -0.5
v -0.3 0 -0.5
v 0.2 0 -0.5
v 0.3 0 -0.5
v 0.4 0 -0.5
v 0.5 0 -0.5
v -0.5 0 -0.6
v -0.3 0 -0.6
v -0.1 0 -0.6
v 0 0 -0.6
v 0.2 0 -0.6
v 0.4 0 -0.6
v -0.3 0 -0.7
v 0.2 0 -0.7
v -0.3 0.1 0.8
v 0.2 0.1 0.8
v -0.5 0.1 0.7
v -0.3 0.1 0.7
v -0.1 0.1 0.7
v 0 0.1 0.7
v 0.2 0.1 0.7
v 0.4 0.1 0.7
v -0.6 0.1 0.6
v -0.5 0.1 0.6
v -0.4 0.1 0.6
v -0.3 0.1 0.6
v 0.2 0.1 0.6
v 0.3 0.1 0.6
v 0.4 0.1 0.6
v 0.5 0.1 0.6
v -0.7 0.1 0.5
v -0.6 0.1 0.5
v -0.5 0.1 0.5
v -0.4 0.1 0.5
v 0.3 0.1 0.5
v 0.4 0.1 0.5
v 0.5 0.1 0.5
v 0.6 0.1 0.5
v -0.6 0.1 0.4
v -0.5 0.1 0.4
v 0.4 0.1 0.4
v 0.5 0.1 0.4
v -0.8 0.1 0.3
v -0.7 0.1 0.3
v -0.6 0.1 0.3
v 0.5 0.1 0.3
v 0.6 0.1 0.3
v 0.7 0.1 0.3
v -0.1 0.1 0.2
v 0 0.1 0.2
v -0.7 0.1 0.1
v -0.2 0.1 0.1
v -0.1 0.1 0.1
v 0 0.1 0.1
v 0.1 0.1 0.1
v 0.6 0.1 0.1
v -0.7 0.1 0
v -0.2 0.1 0
v -0.1 0.1 0
v 0 0.1 0
v 0.1 0.1 0
v 0.6 0.1 0
v -0.1 0.1 -0.1
v 0 0.1 -0.1
v -0.8 0.1 -0.2
v -0.7 0.1 -0.2
v -0.6 0.1 -0.2
v 0.5 0.1 -0.2
v 0.6 0.1 -0.2
v 0.7 0.1 -0.2
v -0.6 0.1 -0.3
v -0.5 0.1 -0.3
v 0.4 0.1 -0.3
v 0.5 0.1 -0.3
v -0.7 0.1 -0.4
v -0.6 0.1 -0.4
v -0.5 0.1 -0.4
v -0.4 0.1 -0.4
v 0.3 0.1 -0.4
v 0.4 0.1 -0.4
v 0.5 0.1 -0.4
v 0.6 0.1 -0.4
v -0.6 0.1 -0.5
v -0.5 0.1 -0.5
v -0.4 0.1 -0.5
v -0.3 0.1 -0.5
v 0.2 0.1 -0.5
v 0.3 0.1 -0.5
v 0.4 0.1 -0.5
v 0.5 0.1 -0.5
v -0.5 0.1 -0.6
v -0.3 0.1 -0.6
v -0.1 0.1 -0.6
v 0 0.1 -0.6
v 0.2 0.1 -0.6
v 0.4 0.1 -0.6
v -0.3 0.1 -0.7
v 0.2 0.1 -0.7

# faces
f 3/3/1 2/3/1 1/3/1
f 4/3/1 2/3/1 3/3/1
f 9/3/1 6/3/1 5/3/1
f 10/3/1 6/3/1 9/3/1
f 11/3/1 8/3/1 7/3/1
f 12/3/1 8/3/1 11/3/1
f 17/3/1 14/3/1 13/3/1
f 18/3/1 14/3/1 17/3/1
f 19/3/1 16/3/1 15/3/1
f 20/3/1 16/3/1 19/3/1
f 25/3/1 22/3/1 21/3/1
f 26/3/1 22/3/1 25/3/1
f 27/3/1 24/3/1 23/3/1
f 28/3/1 24/3/1 27/3/1
f 33/3/1 30/3/1 29/3/1
f 34/3/1 30/3/1 33/3/1
f 35/3/1 32/3/1 31/3/1
f 36/3/1 32/3/1 35/3/1
f 37/3/2 38/3/2 41/3/2
f 41/3/2 38/3/2 42/3/2
f 39/3/2 40/3/2 43/3/2
f 43/3/2 40/3/2 44/3/2
f 45/3/2 46/3/2 49/3/2
f 49/3/2 46/3/2 50/3/2
f 47/3/2 48/3/2 51/3/2
f 51/3/2 48/3/2 52/3/2
f 53/3/2 54/3/2 57/3/2
f 57/3/2 54/3/2 58/3/2
f 55/3/2 56/3/2 59/3/2
f 59/3/2 56/3/2 60/3/2
f 61/3/2 62/3/2 65/3/2
f 65/3/2 62/3/2 66/3/2
f 63/3/2 64/3/2 67/3/2
f 67/3/2 64/3/2 68/3/2
f 69/3/2 70/3/2 71/3/2
f 71/3/2 70/3/2 72/3/2
f 75/3/3 74/3/3 73/3/3
f 76/3/3 74/3/3 75/3/3
f 79/3/3 78/3/3 77/3/3
f 80/3/3 78/3/3 79/3/3
f 83/3/3 82/3/3 81/3/3
f 84/3/3 82/3/3 83/3/3
f 87/3/3 86/3/3 85/3/3
f 88/3/3 86/3/3 87/3/3
f 91/3/3 90/3/3 89/3/3
f 92/3/3 90/3/3 91/3/3
f 95/3/3 94/3/3 93/3/3
f 96/3/3 94/3/3 95/3/3
f 99/3/3 98/3/3 97/3/3
f 100/3/3 98/3/3 99/3/3
f 103/3/3 102/3/3 101/3/3
f 104/3/3 102/3/3 103/3/3
f 107/3/3 106/3/3 105/3/3
f 108/3/3 106/3/3 107/3/3
f 109/3/4 110/3/4 111/3/4
f 111/3/4 110/3/4 112/3/4
f 113/3/4 114/3/4 115/3/4
f 115/3/4 114/3/4 116/3/4
f 117/3/4 118/3/4 119/3/4
f 119/3/4 118/3/4 120/3/4
f 121/3/4 122/3/4 123/3/4
f 123/3/4 122/3/4 124/3/4
f 125/3/4 126/3/4 127/3/4
f 127/3/4 126/3/4 128/3/4
f 129/3/4 130/3/4 131/3/4
f 131/3/4 130/3/4 132/3/4
f 133/3/4 134/3/4 135/3/4
f 135/3/4 134/3/4 136/3/4
f 137/3/4 138/3/4 139/3/4
f 139/3/4 138/3/4 140/3/4
f 141/3/4 142/3/4 143/3/4
f 143/3/4 142/3/4 144/3/4
f 148/3/5 146/3/5 145/3/5
f 149/3/5 146/3/5 148/3/5
f 150/3/5 146/3/5 149/3/5
f 151/3/5 146/3/5 150/3/5
f 154/3/5 148/3/5 147/3/5
f 155/3/5 148/3/5 154/3/5
f 156/1/5 149/1/5 148/1/5
f 156/3/5 148/3/5 155/3/5
f 157/3/5 152/3/5 151/3/5
f 157/1/5 151/1/5 150/1/5
f 158/3/5 152/3/5 157/3/5
f 159/3/5 152/3/5 158/3/5
f 162/3/5 154/3/5 153/3/5
f 163/2/5 155/2/5 154/2/5
f 163/3/5 154/3/5 162/3/5
f 164/1/5 156/1/5 155/1/5
f 164/2/5 155/2/5 163/2/5
f 165/1/5 158/1/5 157/1/5
f 165/2/5 159/2/5 158/2/5
f 166/3/5 160/3/5 159/3/5
f 166/2/5 159/2/5 165/2/5
f 167/3/5 160/3/5 166/3/5
f 169/3/5 162/3/5 161/3/5
f 169/2/5 163/2/5 162/2/5
f 170/1/5 164/1/5 163/1/5
f 170/2/5 163/2/5 169/2/5
f 171/2/5 167/2/5 166/2/5
f 171/1/5 166/1/5 165/1/5
f 172/3/5 168/3/5 167/3/5
f 172/2/5 167/2/5 171/2/5
f 174/3/5 169/3/5 161/3/5
f 175/1/5 170/1/5 169/1/5
f 175/3/5 169/3/5 174/3/5
f 176/3/5 168/3/5 172/3/5
f 176/1/5 172/1/5 171/1/5
f 177/3/5 168/3/5 176/3/5
f 179/1/5 149/1/5 156/1/5
f 179/3/5 150/3/5 149/3/5
f 179/1/5 164/1/5 170/1/5
f 179/1/5 156/1/5 164/1/5
f 179/1/5 170/1/5 175/1/5
f 179/1/5 175/1/5 174/1/5
f 180/1/5 171/1/5 165/1/5
f 180/3/5 150/3/5 179/3/5
f 180/1/5 177/1/5 176/1/5
f 180/1/5 176/1/5 171/1/5
f 180/1/5 165/1/5 157/1/5
f 180/1/5 157/1/5 150/1/5
f 181/1/5 179/1/5 174/1/5
f 181/3/5 174/3/5 173/3/5
f 182/1/5 179/1/5 181/1/5
f 183/2/5 180/2/5 179/2/5
f 183/1/5 179/1/5 182/1/5
f 184/1/5 177/1/5 180/1/5
f 184/2/5 180/2/5 183/2/5
f 185/1/5 177/1/5 184/1/5
f 186/3/5 178/3/5 177/3/5
f 186/1/5 177/1/5 185/1/5
f 187/3/5 182/3/5 181/3/5
f 187/3/5 181/3/5 173/3/5
f 188/2/5 185/2/5 184/2/5
f 188/3/5 182/3/5 187/3/5
f 188/2/5 183/2/5 182/2/5
f 188/2/5 184/2/5 183/2/5
f 189/2/5 185/2/5 188/2/5
f 190/2/5 185/2/5 189/2/5
f 191/3/5 186/3/5 185/3/5
f 191/2/5 185/2/5 190/2/5
f 192/3/5 178/3/5 186/3/5
f 192/3/5 186/3/5 191/3/5
f 193/2/5 190/2/5 189/2/5
f 193/1/5 188/1/5 187/1/5
f 193/1/5 189/1/5 188/1/5
f 194/1/5 191/1/5 190/1/5
f 194/2/5 190/2/5 193/2/5
f 194/1/5 192/1/5 191/1/5
f 195/3/5 187/3/5 173/3/5
f 196/1/5 193/1/5 187/1/5
f 196/3/5 187/3/5 195/3/5
f 197/1/5 193/1/5 196/1/5
f 198/1/5 192/1/5 194/1/5
f 199/3/5 178/3/5 192/3/5
f 199/1/5 192/1/5 198/1/5
f 200/3/5 178/3/5 199/3/5
f 201/1/5 193/1/5 197/1/5
f 201/3/5 197/3/5 196/3/5
f 202/1/5 193/1/5 201/1/5
f 203/1/5 198/1/5 194/1/5
f 204/3/5 199/3/5 198/3/5
f 204/1/5 198/1/5 203/1/5
f 205/3/5 201/3/5 196/3/5
f 206/2/5 202/2/5 201/2/5
f 206/3/5 201/3/5 205/3/5
f 207/1/5 193/1/5 202/1/5
f 207/2/5 202/2/5 206/2/5
f 208/1/5 193/1/5 207/1/5
f 209/1/5 203/1/5 194/1/5
f 210/2/5 204/2/5 203/2/5
f 210/1/5 203/1/5 209/1/5
f 211/3/5 199/3/5 204/3/5
f 211/2/5 204/2/5 210/2/5
f 212/3/5 199/3/5 211/3/5
f 213/3/5 207/3/5 206/3/5
f 214/2/5 208/2/5 207/2/5
f 214/3/5 207/3/5 213/3/5
f 215/1/5 193/1/5 208/1/5
f 215/2/5 208/2/5 214/2/5
f 216/1/5 193/1/5 215/1/5
f 217/1/5 209/1/5 194/1/5
f 218/2/5 210/2/5 209/2/5
f 218/1/5 209/1/5 217/1/5
f 219/3/5 211/3/5 210/3/5
f 219/2/5 210/2/5 218/2/5
f 220/3/5 211/3/5 219/3/5
f 221/3/5 215/3/5 214/3/5
f 221/3/5 216/3/5 215/3/5
f 222/1/5 193/1/5 216/1/5
f 222/3/5 216/3/5 221/3/5
f 223/3/5 194/3/5 193/3/5
f 223/1/5 193/1/5 222/1/5
f 224/1/5 217/1/5 194/1/5
f 224/3/5 194/3/5 223/3/5
f 225/3/5 218/3/5 217/3/5
f 225/1/5 217/1/5 224/1/5
f 225/3/5 219/3/5 218/3/5
f 226/3/5 219/3/5 225/3/5
f 227/3/5 223/3/5 222/3/5
f 227/3/5 225/3/5 224/3/5
f 227/3/5 224/3/5 223/3/5
f 228/3/5 225/3/5 227/3/5
f 229/3/6 230/3/6 232/3/6
f 232/3/6 230/3/6 233/3/6
f 233/3/6 230/3/6 234/3/6
f 234/3/6 230/3/6 235/3/6
f 231/3/6 232/3/6 238/3/6
f 238/3/6 232/3/6 239/3/6
f 232/1/6 233/1/6 240/1/6
f 239/3/6 232/3/6 240/3/6
f 235/3/6 236/3/6 241/3/6
f 234/1/6 235/1/6 241/1/6
f 241/3/6 236/3/6 242/3/6
f 242/3/6 236/3/6 243/3/6
f 237/3/6 238/3/6 246/3/6
f 238/2/6 239/2/6 247/2/6
f 246/3/6 238/3/6 247/3/6
f 239/1/6 240/1/6 248/1/6
f 247/2/6 239/2/6 248/2/6
f 241/1/6 242/1/6 249/1/6
f 242/2/6 243/2/6 249/2/6
f 243/3/6 244/3/6 250/3/6
f 249/2/6 243/2/6 250/2/6
f 250/3/6 244/3/6 251/3/6
f 245/3/6 246/3/6 253/3/6
f 246/2/6 247/2/6 253/2/6
f 247/1/6 248/1/6 254/1/6
f 253/2/6 247/2/6 254/2/6
f 250/2/6 251/2/6 255/2/6
f 249/1/6 250/1/6 255/1/6
f 251/3/6 252/3/6 256/3/6
f 255/2/6 251/2/6 256/2/6
f 245/3/6 253/3/6 258/3/6
f 253/1/6 254/1/6 259/1/6
f 258/3/6 253/3/6 259/3/6
f 256/3/6 252/3/6 260/3/6
f 255/1/6 256/1/6 260/1/6
f 260/3/6 252/3/6 261/3/6
f 240/1/6 233/1/6 263/1/6
f 233/3/6 234/3/6 263/3/6
f 254/1/6 248/1/6 263/1/6
f 248/1/6 240/1/6 263/1/6
f 259/1/6 254/1/6 263/1/6
f 258/1/6 259/1/6 263/1/6
f 249/1/6 255/1/6 264/1/6
f 263/3/6 234/3/6 264/3/6
f 260/1/6 261/1/6 264/1/6
f 255/1/6 260/1/6 264/1/6
f 241/1/6 249/1/6 264/1/6
f 234/1/6 241/1/6 264/1/6
f 258/1/6 263/1/6 265/1/6
f 257/3/6 258/3/6 265/3/6
f 265/1/6 263/1/6 266/1/6
f 263/2/6 264/2/6 267/2/6
f 266/1/6 263/1/6 267/1/6
f 264/1/6 261/1/6 268/1/6
f 267/2/6 264/2/6 268/2/6
f 268/1/6 261/1/6 269/1/6
f 261/3/6 262/3/6 270/3/6
f 269/1/6 261/1/6 270/1/6
f 265/3/6 266/3/6 271/3/6
f 257/3/6 265/3/6 271/3/6
f 268/2/6 269/2/6 272/2/6
f 271/3/6 266/3/6 272/3/6
f 266/2/6 267/2/6 272/2/6
f 267/2/6 268/2/6 272/2/6
f 272/2/6 269/2/6 273/2/6
f 273/2/6 269/2/6 274/2/6
f 269/3/6 270/3/6 275/3/6
f 274/2/6 269/2/6 275/2/6
f 270/3/6 262/3/6 276/3/6
f 275/3/6 270/3/6 276/3/6
f 273/2/6 274/2/6 277/2/6
f 271/1/6 272/1/6 277/1/6
f 272/1/6 273/1/6 277/1/6
f 274/1/6 275/1/6 278/1/6
f 277/2/6 274/2/6 278/2/6
f 275/1/6 276/1/6 278/1/6
f 257/3/6 271/3/6 279/3/6
f 271/1/6 277/1/6 280/1/6
f 279/3/6 271/3/6 280/3/6
f 280/1/6 277/1/6 281/1/6
f 278/1/6 276/1/6 282/1/6
f 276/3/6 262/3/6 283/3/6
f 282/1/6 276/1/6 283/1/6
f 283/3/6 262/3/6 284/3/6
f 281/1/6 277/1/6 285/1/6
f 280/3/6 281/3/6 285/3/6
f 285/1/6 277/1/6 286/1/6
f 278/1/6 282/1/6 287/1/6
f 282/3/6 283/3/6 288/3/6
f 287/1/6 282/1/6 288/1/6
f 280/3/6 285/3/6 289/3/6
f 285/2/6 286/2/6 290/2/6
f 289/3/6 285/3/6 290/3/6
f 286/1/6 277/1/6 291/1/6
f 290/2/6 286/2/6 291/2/6
f 291/1/6 277/1/6 292/1/6
f 278/1/6 287/1/6 293/1/6
f 287/2/6 288/2/6 294/2/6
f 293/1/6 287/1/6 294/1/6
f 288/3/6 283/3/6 295/3/6
f 294/2/6 288/2/6 295/2/6
f 295/3/6 283/3/6 296/3/6
f 290/3/6 291/3/6 297/3/6
f 291/2/6 292/2/6 298/2/6
f 297/3/6 291/3/6 298/3/6
f 292/1/6 277/1/6 299/1/6
f 298/2/6 292/2/6 299/2/6
f 299/1/6 277/1/6 300/1/6
f 278/1/6 293/1/6 301/1/6
f 293/2/6 294/2/6 302/2/6
f 301/1/6 293/1/6 302/1/6
f 294/3/6 295/3/6 303/3/6
f 302/2/6 294/2/6 303/2/6
f 303/3/6 295/3/6 304/3/6
f 298/3/6 299/3/6 305/3/6
f 299/3/6 300/3/6 305/3/6
f 300/1/6 277/1/6 306/1/6
f 305/3/6 300/3/6 306/3/6
f 277/3/6 278/3/6 307/3/6
f 306/1/6 277/1/6 307/1/6
f 278/1/6 301/1/6 308/1/6
f 307/3/6 278/3/6 308/3/6
f 301/3/6 302/3/6 309/3/6
f 308/1/6 301/1/6 309/1/6
f 302/3/6 303/3/6 309/3/6
f 309/3/6 303/3/6 310/3/6
f 306/3/6 307/3/6 311/3/6
f 308/3/6 309/3/6 311/3/6
f 307/3/6 308/3/6 311/3/6
f 311/3/6 309/3/6 312/3/6
