# MagicaVoxel @ Ephtracy

# group
o 

# material
mtllib robo_arm.mtl
usemtl palette

# normals
vn -1 0 0
vn 1 0 0
vn 0 0 1
vn 0 0 -1
vn 0 -1 0
vn 0 1 0

# texcoords
vt 0.974609 0.5
vt 0.982422 0.5

# verts
v -0.3 0.5 -0.4
v -0.3 0.5 -0.6
v -0.3 0.7 -0.3
v -0.3 0.7 -0.4
v -0.3 0.7 -0.6
v -0.3 0.7 -0.7
v -0.3 0.9 -0.3
v -0.3 0.9 -0.7
v -0.3 1.1 -0.3
v -0.3 1.1 -0.7
v -0.3 1.2 -0.3
v -0.3 1.2 -0.7
v -0.3 1.4 -0.3
v -0.3 1.4 -0.7
v -0.3 1.5 -0.3
v -0.3 1.5 -0.7
v -0.3 1.7 -0.3
v -0.3 1.7 -0.7
v -0.3 1.8 -0.3
v -0.3 1.8 -0.7
v -0.3 2 -0.3
v -0.3 2 -0.7
v -0.3 2.1 -0.3
v -0.3 2.1 -0.7
v -0.3 2.3 -0.3
v -0.3 2.3 -0.7
v -0.3 2.4 -0.3
v -0.3 2.4 -0.7
v -0.2 0.9 -0.4
v -0.2 0.9 -0.6
v -0.2 1.1 -0.4
v -0.2 1.1 -0.6
v -0.2 1.2 -0.4
v -0.2 1.2 -0.6
v -0.2 1.4 -0.4
v -0.2 1.4 -0.6
v -0.2 1.5 -0.4
v -0.2 1.5 -0.6
v -0.2 1.7 -0.4
v -0.2 1.7 -0.6
v -0.2 1.8 -0.4
v -0.2 1.8 -0.6
v -0.2 2 -0.4
v -0.2 2 -0.6
v -0.2 2.1 -0.4
v -0.2 2.1 -0.6
v -0.2 2.3 -0.4
v -0.2 2.3 -0.6
v 0 0.5 -0.3
v 0 0.5 -0.4
v 0 0.5 -0.6
v 0 0.5 -0.7
v 0 0.7 -0.3
v 0 0.7 -0.4
v 0 0.7 -0.6
v 0 0.7 -0.7
v -0.2 0.5 -0.4
v -0.2 0.5 -0.6
v -0.2 0.7 -0.4
v -0.2 0.7 -0.6
v 0 0.9 -0.4
v 0 0.9 -0.6
v 0 1.1 -0.4
v 0 1.1 -0.6
v 0 1.2 -0.4
v 0 1.2 -0.6
v 0 1.4 -0.4
v 0 1.4 -0.6
v 0 1.5 -0.4
v 0 1.5 -0.6
v 0 1.7 -0.4
v 0 1.7 -0.6
v 0 1.8 -0.4
v 0 1.8 -0.6
v 0 2 -0.4
v 0 2 -0.6
v 0 2.1 -0.4
v 0 2.1 -0.6
v 0 2.3 -0.4
v 0 2.3 -0.6
v 0.1 0.5 -0.3
v 0.1 0.5 -0.4
v 0.1 0.5 -0.6
v 0.1 0.5 -0.7
v 0.1 0.7 -0.3
v 0.1 0.7 -0.4
v 0.1 0.7 -0.6
v 0.1 0.7 -0.7
v 0.1 0.9 -0.3
v 0.1 0.9 -0.7
v 0.1 1.1 -0.3
v 0.1 1.1 -0.7
v 0.1 1.2 -0.3
v 0.1 1.2 -0.7
v 0.1 1.4 -0.3
v 0.1 1.4 -0.7
v 0.1 1.5 -0.3
v 0.1 1.5 -0.7
v 0.1 1.7 -0.3
v 0.1 1.7 -0.7
v 0.1 1.8 -0.3
v 0.1 1.8 -0.7
v 0.1 2 -0.3
v 0.1 2 -0.7
v 0.1 2.1 -0.3
v 0.1 2.1 -0.7
v 0.1 2.3 -0.3
v 0.1 2.3 -0.7
v 0.1 2.4 -0.3
v 0.1 2.4 -0.7
v -0.3 0.7 -0.3
v -0.3 0.9 -0.3
v -0.3 1.1 -0.3
v -0.3 1.2 -0.3
v -0.3 1.4 -0.3
v -0.3 1.5 -0.3
v -0.3 1.7 -0.3
v -0.3 1.8 -0.3
v -0.3 2 -0.3
v -0.3 2.1 -0.3
v -0.3 2.3 -0.3
v -0.3 2.4 -0.3
v 0 0.5 -0.3
v 0 0.7 -0.3
v 0.1 0.5 -0.3
v 0.1 0.7 -0.3
v 0.1 0.9 -0.3
v 0.1 1.1 -0.3
v 0.1 1.2 -0.3
v 0.1 1.4 -0.3
v 0.1 1.5 -0.3
v 0.1 1.7 -0.3
v 0.1 1.8 -0.3
v 0.1 2 -0.3
v 0.1 2.1 -0.3
v 0.1 2.3 -0.3
v 0.1 2.4 -0.3
v -0.3 0.5 -0.4
v -0.3 0.7 -0.4
v -0.2 0.5 -0.4
v -0.2 0.7 -0.4
v -0.2 0.9 -0.4
v -0.2 1.1 -0.4
v -0.2 1.2 -0.4
v -0.2 1.4 -0.4
v -0.2 1.5 -0.4
v -0.2 1.7 -0.4
v -0.2 1.8 -0.4
v -0.2 2 -0.4
v -0.2 2.1 -0.4
v -0.2 2.3 -0.4
v 0 0.9 -0.4
v 0 1.1 -0.4
v 0 1.2 -0.4
v 0 1.4 -0.4
v 0 1.5 -0.4
v 0 1.7 -0.4
v 0 1.8 -0.4
v 0 2 -0.4
v 0 2.1 -0.4
v 0 2.3 -0.4
v 0 0.5 -0.6
v 0 0.7 -0.6
v 0.1 0.5 -0.6
v 0.1 0.7 -0.6
v 0 0.5 -0.4
v 0 0.7 -0.4
v 0.1 0.5 -0.4
v 0.1 0.7 -0.4
v -0.3 0.5 -0.6
v -0.3 0.7 -0.6
v -0.2 0.5 -0.6
v -0.2 0.7 -0.6
v -0.2 0.9 -0.6
v -0.2 1.1 -0.6
v -0.2 1.2 -0.6
v -0.2 1.4 -0.6
v -0.2 1.5 -0.6
v -0.2 1.7 -0.6
v -0.2 1.8 -0.6
v -0.2 2 -0.6
v -0.2 2.1 -0.6
v -0.2 2.3 -0.6
v 0 0.9 -0.6
v 0 1.1 -0.6
v 0 1.2 -0.6
v 0 1.4 -0.6
v 0 1.5 -0.6
v 0 1.7 -0.6
v 0 1.8 -0.6
v 0 2 -0.6
v 0 2.1 -0.6
v 0 2.3 -0.6
v -0.3 0.7 -0.7
v -0.3 0.9 -0.7
v -0.3 1.1 -0.7
v -0.3 1.2 -0.7
v -0.3 1.4 -0.7
v -0.3 1.5 -0.7
v -0.3 1.7 -0.7
v -0.3 1.8 -0.7
v -0.3 2 -0.7
v -0.3 2.1 -0.7
v -0.3 2.3 -0.7
v -0.3 2.4 -0.7
v 0 0.5 -0.7
v 0 0.7 -0.7
v 0.1 0.5 -0.7
v 0.1 0.7 -0.7
v 0.1 0.9 -0.7
v 0.1 1.1 -0.7
v 0.1 1.2 -0.7
v 0.1 1.4 -0.7
v 0.1 1.5 -0.7
v 0.1 1.7 -0.7
v 0.1 1.8 -0.7
v 0.1 2 -0.7
v 0.1 2.1 -0.7
v 0.1 2.3 -0.7
v 0.1 2.4 -0.7
v 0 0.5 -0.3
v 0.1 0.5 -0.3
v -0.3 0.5 -0.4
v -0.2 0.5 -0.4
v 0 0.5 -0.4
v 0.1 0.5 -0.4
v -0.3 0.5 -0.6
v -0.2 0.5 -0.6
v 0 0.5 -0.6
v 0.1 0.5 -0.6
v 0 0.5 -0.7
v 0.1 0.5 -0.7
v -0.3 0.7 -0.3
v 0 0.7 -0.3
v -0.3 0.7 -0.4
v -0.2 0.7 -0.4
v 0 0.7 -0.4
v 0.1 0.7 -0.4
v -0.3 0.7 -0.6
v -0.2 0.7 -0.6
v 0 0.7 -0.6
v 0.1 0.7 -0.6
v -0.3 0.7 -0.7
v 0 0.7 -0.7
v -0.3 1.1 -0.3
v 0.1 1.1 -0.3
v -0.2 1.1 -0.4
v 0 1.1 -0.4
v -0.2 1.1 -0.6
v 0 1.1 -0.6
v -0.3 1.1 -0.7
v 0.1 1.1 -0.7
v -0.3 1.4 -0.3
v 0.1 1.4 -0.3
v -0.2 1.4 -0.4
v 0 1.4 -0.4
v -0.2 1.4 -0.6
v 0 1.4 -0.6
v -0.3 1.4 -0.7
v 0.1 1.4 -0.7
v -0.3 1.7 -0.3
v 0.1 1.7 -0.3
v -0.2 1.7 -0.4
v 0 1.7 -0.4
v -0.2 1.7 -0.6
v 0 1.7 -0.6
v -0.3 1.7 -0.7
v 0.1 1.7 -0.7
v -0.3 2 -0.3
v 0.1 2 -0.3
v -0.2 2 -0.4
v 0 2 -0.4
v -0.2 2 -0.6
v 0 2 -0.6
v -0.3 2 -0.7
v 0.1 2 -0.7
v -0.3 2.3 -0.3
v 0.1 2.3 -0.3
v -0.2 2.3 -0.4
v 0 2.3 -0.4
v -0.2 2.3 -0.6
v 0 2.3 -0.6
v -0.3 2.3 -0.7
v 0.1 2.3 -0.7
v -0.3 0.9 -0.3
v 0.1 0.9 -0.3
v -0.2 0.9 -0.4
v 0 0.9 -0.4
v -0.2 0.9 -0.6
v 0 0.9 -0.6
v -0.3 0.9 -0.7
v 0.1 0.9 -0.7
v -0.3 1.2 -0.3
v 0.1 1.2 -0.3
v -0.2 1.2 -0.4
v 0 1.2 -0.4
v -0.2 1.2 -0.6
v 0 1.2 -0.6
v -0.3 1.2 -0.7
v 0.1 1.2 -0.7
v -0.3 1.5 -0.3
v 0.1 1.5 -0.3
v -0.2 1.5 -0.4
v 0 1.5 -0.4
v -0.2 1.5 -0.6
v 0 1.5 -0.6
v -0.3 1.5 -0.7
v 0.1 1.5 -0.7
v -0.3 1.8 -0.3
v 0.1 1.8 -0.3
v -0.2 1.8 -0.4
v 0 1.8 -0.4
v -0.2 1.8 -0.6
v 0 1.8 -0.6
v -0.3 1.8 -0.7
v 0.1 1.8 -0.7
v -0.3 2.1 -0.3
v 0.1 2.1 -0.3
v -0.2 2.1 -0.4
v 0 2.1 -0.4
v -0.2 2.1 -0.6
v 0 2.1 -0.6
v -0.3 2.1 -0.7
v 0.1 2.1 -0.7
v -0.3 2.4 -0.3
v 0.1 2.4 -0.3
v -0.3 2.4 -0.7
v 0.1 2.4 -0.7

# faces
f 4/2/1 2/2/1 1/2/1
f 5/2/1 2/2/1 4/2/1
f 7/1/1 4/1/1 3/1/1
f 7/1/1 6/1/1 5/1/1
f 7/1/1 5/1/1 4/1/1
f 8/1/1 6/1/1 7/1/1
f 11/2/1 10/2/1 9/2/1
f 12/2/1 10/2/1 11/2/1
f 15/2/1 14/2/1 13/2/1
f 16/2/1 14/2/1 15/2/1
f 19/2/1 18/2/1 17/2/1
f 20/2/1 18/2/1 19/2/1
f 23/2/1 22/2/1 21/2/1
f 24/2/1 22/2/1 23/2/1
f 27/2/1 26/2/1 25/2/1
f 28/2/1 26/2/1 27/2/1
f 31/1/1 30/1/1 29/1/1
f 32/1/1 30/1/1 31/1/1
f 35/1/1 34/1/1 33/1/1
f 36/1/1 34/1/1 35/1/1
f 39/1/1 38/1/1 37/1/1
f 40/1/1 38/1/1 39/1/1
f 43/1/1 42/1/1 41/1/1
f 44/1/1 42/1/1 43/1/1
f 47/1/1 46/1/1 45/1/1
f 48/1/1 46/1/1 47/1/1
f 53/2/1 50/2/1 49/2/1
f 54/2/1 50/2/1 53/2/1
f 55/2/1 52/2/1 51/2/1
f 56/2/1 52/2/1 55/2/1
f 57/2/2 58/2/2 59/2/2
f 59/2/2 58/2/2 60/2/2
f 61/1/2 62/1/2 63/1/2
f 63/1/2 62/1/2 64/1/2
f 65/1/2 66/1/2 67/1/2
f 67/1/2 66/1/2 68/1/2
f 69/1/2 70/1/2 71/1/2
f 71/1/2 70/1/2 72/1/2
f 73/1/2 74/1/2 75/1/2
f 75/1/2 74/1/2 76/1/2
f 77/1/2 78/1/2 79/1/2
f 79/1/2 78/1/2 80/1/2
f 81/2/2 82/2/2 85/2/2
f 85/2/2 82/2/2 86/2/2
f 83/2/2 84/2/2 87/2/2
f 87/2/2 84/2/2 88/2/2
f 85/1/2 86/1/2 89/1/2
f 86/1/2 87/1/2 89/1/2
f 87/1/2 88/1/2 89/1/2
f 89/1/2 88/1/2 90/1/2
f 91/2/2 92/2/2 93/2/2
f 93/2/2 92/2/2 94/2/2
f 95/2/2 96/2/2 97/2/2
f 97/2/2 96/2/2 98/2/2
f 99/2/2 100/2/2 101/2/2
f 101/2/2 100/2/2 102/2/2
f 103/2/2 104/2/2 105/2/2
f 105/2/2 104/2/2 106/2/2
f 107/2/2 108/2/2 109/2/2
f 109/2/2 108/2/2 110/2/2
f 124/1/3 112/1/3 111/1/3
f 125/2/3 124/2/3 123/2/3
f 126/1/3 112/1/3 124/1/3
f 126/2/3 124/2/3 125/2/3
f 127/1/3 112/1/3 126/1/3
f 128/2/3 114/2/3 113/2/3
f 129/2/3 114/2/3 128/2/3
f 130/2/3 116/2/3 115/2/3
f 131/2/3 116/2/3 130/2/3
f 132/2/3 118/2/3 117/2/3
f 133/2/3 118/2/3 132/2/3
f 134/2/3 120/2/3 119/2/3
f 135/2/3 120/2/3 134/2/3
f 136/2/3 122/2/3 121/2/3
f 137/2/3 122/2/3 136/2/3
f 140/2/3 139/2/3 138/2/3
f 141/2/3 139/2/3 140/2/3
f 152/1/3 143/1/3 142/1/3
f 153/1/3 143/1/3 152/1/3
f 154/1/3 145/1/3 144/1/3
f 155/1/3 145/1/3 154/1/3
f 156/1/3 147/1/3 146/1/3
f 157/1/3 147/1/3 156/1/3
f 158/1/3 149/1/3 148/1/3
f 159/1/3 149/1/3 158/1/3
f 160/1/3 151/1/3 150/1/3
f 161/1/3 151/1/3 160/1/3
f 164/2/3 163/2/3 162/2/3
f 165/2/3 163/2/3 164/2/3
f 166/2/4 167/2/4 168/2/4
f 168/2/4 167/2/4 169/2/4
f 170/2/4 171/2/4 172/2/4
f 172/2/4 171/2/4 173/2/4
f 174/1/4 175/1/4 184/1/4
f 184/1/4 175/1/4 185/1/4
f 176/1/4 177/1/4 186/1/4
f 186/1/4 177/1/4 187/1/4
f 178/1/4 179/1/4 188/1/4
f 188/1/4 179/1/4 189/1/4
f 180/1/4 181/1/4 190/1/4
f 190/1/4 181/1/4 191/1/4
f 182/1/4 183/1/4 192/1/4
f 192/1/4 183/1/4 193/1/4
f 194/1/4 195/1/4 207/1/4
f 206/2/4 207/2/4 208/2/4
f 207/1/4 195/1/4 209/1/4
f 208/2/4 207/2/4 209/2/4
f 209/1/4 195/1/4 210/1/4
f 196/2/4 197/2/4 211/2/4
f 211/2/4 197/2/4 212/2/4
f 198/2/4 199/2/4 213/2/4
f 213/2/4 199/2/4 214/2/4
f 200/2/4 201/2/4 215/2/4
f 215/2/4 201/2/4 216/2/4
f 202/2/4 203/2/4 217/2/4
f 217/2/4 203/2/4 218/2/4
f 204/2/4 205/2/4 219/2/4
f 219/2/4 205/2/4 220/2/4
f 225/2/5 222/2/5 221/2/5
f 226/2/5 222/2/5 225/2/5
f 227/2/5 224/2/5 223/2/5
f 228/2/5 224/2/5 227/2/5
f 231/2/5 230/2/5 229/2/5
f 232/2/5 230/2/5 231/2/5
f 235/1/5 234/1/5 233/1/5
f 236/1/5 234/1/5 235/1/5
f 237/1/5 234/1/5 236/1/5
f 240/1/5 238/1/5 237/1/5
f 240/1/5 237/1/5 236/1/5
f 241/1/5 238/1/5 240/1/5
f 242/1/5 238/1/5 241/1/5
f 243/1/5 240/1/5 239/1/5
f 243/1/5 241/1/5 240/1/5
f 244/1/5 241/1/5 243/1/5
f 247/2/5 246/2/5 245/2/5
f 248/2/5 246/2/5 247/2/5
f 249/2/5 247/2/5 245/2/5
f 250/2/5 246/2/5 248/2/5
f 251/2/5 249/2/5 245/2/5
f 251/2/5 250/2/5 249/2/5
f 252/2/5 246/2/5 250/2/5
f 252/2/5 250/2/5 251/2/5
f 255/2/5 254/2/5 253/2/5
f 256/2/5 254/2/5 255/2/5
f 257/2/5 255/2/5 253/2/5
f 258/2/5 254/2/5 256/2/5
f 259/2/5 257/2/5 253/2/5
f 259/2/5 258/2/5 257/2/5
f 260/2/5 254/2/5 258/2/5
f 260/2/5 258/2/5 259/2/5
f 263/2/5 262/2/5 261/2/5
f 264/2/5 262/2/5 263/2/5
f 265/2/5 263/2/5 261/2/5
f 266/2/5 262/2/5 264/2/5
f 267/2/5 265/2/5 261/2/5
f 267/2/5 266/2/5 265/2/5
f 268/2/5 262/2/5 266/2/5
f 268/2/5 266/2/5 267/2/5
f 271/2/5 270/2/5 269/2/5
f 272/2/5 270/2/5 271/2/5
f 273/2/5 271/2/5 269/2/5
f 274/2/5 270/2/5 272/2/5
f 275/2/5 273/2/5 269/2/5
f 275/2/5 274/2/5 273/2/5
f 276/2/5 270/2/5 274/2/5
f 276/2/5 274/2/5 275/2/5
f 279/2/5 278/2/5 277/2/5
f 280/2/5 278/2/5 279/2/5
f 281/2/5 279/2/5 277/2/5
f 282/2/5 278/2/5 280/2/5
f 283/2/5 281/2/5 277/2/5
f 283/2/5 282/2/5 281/2/5
f 284/2/5 278/2/5 282/2/5
f 284/2/5 282/2/5 283/2/5
f 285/1/6 286/1/6 287/1/6
f 287/1/6 286/1/6 288/1/6
f 285/1/6 287/1/6 289/1/6
f 288/1/6 286/1/6 290/1/6
f 285/1/6 289/1/6 291/1/6
f 289/1/6 290/1/6 291/1/6
f 290/1/6 286/1/6 292/1/6
f 291/1/6 290/1/6 292/1/6
f 293/2/6 294/2/6 295/2/6
f 295/2/6 294/2/6 296/2/6
f 293/2/6 295/2/6 297/2/6
f 296/2/6 294/2/6 298/2/6
f 293/2/6 297/2/6 299/2/6
f 297/2/6 298/2/6 299/2/6
f 298/2/6 294/2/6 300/2/6
f 299/2/6 298/2/6 300/2/6
f 301/2/6 302/2/6 303/2/6
f 303/2/6 302/2/6 304/2/6
f 301/2/6 303/2/6 305/2/6
f 304/2/6 302/2/6 306/2/6
f 301/2/6 305/2/6 307/2/6
f 305/2/6 306/2/6 307/2/6
f 306/2/6 302/2/6 308/2/6
f 307/2/6 306/2/6 308/2/6
f 309/2/6 310/2/6 311/2/6
f 311/2/6 310/2/6 312/2/6
f 309/2/6 311/2/6 313/2/6
f 312/2/6 310/2/6 314/2/6
f 309/2/6 313/2/6 315/2/6
f 313/2/6 314/2/6 315/2/6
f 314/2/6 310/2/6 316/2/6
f 315/2/6 314/2/6 316/2/6
f 317/2/6 318/2/6 319/2/6
f 319/2/6 318/2/6 320/2/6
f 317/2/6 319/2/6 321/2/6
f 320/2/6 318/2/6 322/2/6
f 317/2/6 321/2/6 323/2/6
f 321/2/6 322/2/6 323/2/6
f 322/2/6 318/2/6 324/2/6
f 323/2/6 322/2/6 324/2/6
f 325/2/6 326/2/6 327/2/6
f 327/2/6 326/2/6 328/2/6
