# MagicaVoxel @ Ephtracy

# group
o 

# material
mtllib uzi.mtl
usemtl palette

# normals
vn -1 0 0
vn 1 0 0
vn 0 0 1
vn 0 0 -1
vn 0 -1 0
vn 0 1 0

# texcoords
vt 0.982422 0.5
vt 0.986328 0.5
vt 0.990234 0.5
vt 0.994141 0.5

# verts
v -0.2 0 -0.0999999
v -0.2 0 -0.3
v -0.2 0.3 1.19209e-007
v -0.2 0.3 -0.0999999
v -0.2 0.3 -0.3
v -0.2 0.3 -0.4
v -0.2 0.4 -0.2
v -0.2 0.4 -0.3
v -0.2 0.5 -0.2
v -0.2 0.5 -0.3
v -0.2 0.8 0.1
v -0.2 0.8 1.19209e-007
v -0.2 0.8 -0.2
v -0.2 0.8 -0.3
v -0.2 0.9 0.2
v -0.2 0.9 0.1
v -0.2 0.9 -0.0999999
v -0.2 0.9 -0.2
v -0.2 0.9 -0.3
v -0.2 1 1.19209e-007
v -0.2 1 -0.0999999
v -0.2 1.1 0.7
v -0.2 1.1 0.2
v -0.2 1.1 0.1
v -0.2 1.1 1.19209e-007
v -0.2 1.1 -0.0999999
v -0.2 1.1 -0.4
v -0.2 1.1 -0.6
v -0.2 1.3 0.7
v -0.2 1.3 -0.6
v -0.2 1.5 0.7
v -0.2 1.5 -0.6
v -0.1 1.3 1.3
v -0.1 1.3 0.7
v -0.1 1.4 1.3
v -0.1 1.4 0.7
v 0 1.1 1.19209e-007
v 0 1.1 -0.0999999
v 0 1.2 1.19209e-007
v 0 1.2 -0.0999999
v -0.1 1.1 1.19209e-007
v -0.1 1.1 -0.0999999
v -0.1 1.2 1.19209e-007
v -0.1 1.2 -0.0999999
v 0.1 1.3 1.3
v 0.1 1.3 0.7
v 0.1 1.4 1.3
v 0.1 1.4 0.7
v 0.2 0 -0.0999999
v 0.2 0 -0.3
v 0.2 0.3 1.19209e-007
v 0.2 0.3 -0.0999999
v 0.2 0.3 -0.3
v 0.2 0.3 -0.4
v 0.2 0.4 -0.2
v 0.2 0.4 -0.3
v 0.2 0.5 -0.2
v 0.2 0.5 -0.3
v 0.2 0.8 0.1
v 0.2 0.8 1.19209e-007
v 0.2 0.8 -0.2
v 0.2 0.8 -0.3
v 0.2 0.9 0.2
v 0.2 0.9 0.1
v 0.2 0.9 -0.0999999
v 0.2 0.9 -0.2
v 0.2 0.9 -0.3
v 0.2 1 1.19209e-007
v 0.2 1 -0.0999999
v 0.2 1.1 0.7
v 0.2 1.1 0.2
v 0.2 1.1 0.1
v 0.2 1.1 1.19209e-007
v 0.2 1.1 -0.0999999
v 0.2 1.1 -0.4
v 0.2 1.1 -0.6
v 0.2 1.3 0.7
v 0.2 1.3 -0.6
v 0.2 1.5 0.7
v 0.2 1.5 -0.6
v -0.1 1.3 1.3
v -0.1 1.4 1.3
v 0.1 1.3 1.3
v 0.1 1.4 1.3
v -0.2 1.1 0.7
v -0.2 1.3 0.7
v -0.2 1.5 0.7
v -0.1 1.3 0.7
v -0.1 1.4 0.7
v 0.1 1.3 0.7
v 0.1 1.4 0.7
v 0.2 1.1 0.7
v 0.2 1.3 0.7
v 0.2 1.5 0.7
v -0.2 0.9 0.2
v -0.2 1.1 0.2
v 0.2 0.9 0.2
v 0.2 1.1 0.2
v -0.2 0.8 0.1
v -0.2 0.9 0.1
v 0.2 0.8 0.1
v 0.2 0.9 0.1
v -0.2 0.3 1.19209e-007
v -0.2 0.8 1.19209e-007
v -0.2 1 1.19209e-007
v -0.2 1.1 1.19209e-007
v 0.2 0.3 1.19209e-007
v 0.2 0.8 1.19209e-007
v 0.2 1 1.19209e-007
v 0.2 1.1 1.19209e-007
v -0.2 0 -0.0999999
v -0.2 0.3 -0.0999999
v -0.2 0.9 -0.0999999
v -0.2 1 -0.0999999
v -0.1 1.1 -0.0999999
v -0.1 1.2 -0.0999999
v 0 1.1 -0.0999999
v 0 1.2 -0.0999999
v 0.2 0 -0.0999999
v 0.2 0.3 -0.0999999
v 0.2 0.9 -0.0999999
v 0.2 1 -0.0999999
v -0.2 0.9 0.1
v -0.2 1.1 0.1
v 0.2 0.9 0.1
v 0.2 1.1 0.1
v -0.1 1.1 1.19209e-007
v -0.1 1.2 1.19209e-007
v 0 1.1 1.19209e-007
v 0 1.2 1.19209e-007
v -0.2 0 -0.3
v -0.2 0.3 -0.3
v 0.2 0 -0.3
v 0.2 0.3 -0.3
v -0.2 0.3 -0.4
v -0.2 1.1 -0.4
v 0.2 0.3 -0.4
v 0.2 1.1 -0.4
v -0.2 1.1 -0.6
v -0.2 1.3 -0.6
v -0.2 1.5 -0.6
v -0.1 1.3 -0.6
v -0.1 1.4 -0.6
v 0.1 1.3 -0.6
v 0.1 1.4 -0.6
v 0.2 1.1 -0.6
v 0.2 1.3 -0.6
v 0.2 1.5 -0.6
v -0.2 0 -0.0999999
v 0.2 0 -0.0999999
v -0.2 0 -0.3
v 0.2 0 -0.3
v -0.2 0.3 1.19209e-007
v 0.2 0.3 1.19209e-007
v -0.2 0.3 -0.0999999
v 0.2 0.3 -0.0999999
v -0.2 0.3 -0.3
v 0.2 0.3 -0.3
v -0.2 0.3 -0.4
v 0.2 0.3 -0.4
v -0.2 0.8 0.1
v 0.2 0.8 0.1
v -0.2 0.8 1.19209e-007
v 0.2 0.8 1.19209e-007
v -0.2 0.9 0.2
v 0.2 0.9 0.2
v -0.2 0.9 0.1
v 0.2 0.9 0.1
v -0.2 1 1.19209e-007
v 0.2 1 1.19209e-007
v -0.2 1 -0.0999999
v 0.2 1 -0.0999999
v -0.2 1.1 0.7
v 0.2 1.1 0.7
v -0.2 1.1 0.2
v 0.2 1.1 0.2
v -0.2 1.1 0.1
v 0.2 1.1 0.1
v -0.2 1.1 1.19209e-007
v 0.2 1.1 1.19209e-007
v -0.2 1.1 -0.4
v 0.2 1.1 -0.4
v -0.2 1.1 -0.6
v 0.2 1.1 -0.6
v -0.1 1.2 1.19209e-007
v 0 1.2 1.19209e-007
v -0.1 1.2 -0.0999999
v 0 1.2 -0.0999999
v -0.1 1.3 1.3
v 0.1 1.3 1.3
v -0.1 1.3 0.7
v 0.1 1.3 0.7
v -0.2 0.9 0.1
v 0.2 0.9 0.1
v -0.2 0.9 -0.0999999
v 0.2 0.9 -0.0999999
v -0.1 1.1 1.19209e-007
v 0 1.1 1.19209e-007
v -0.1 1.1 -0.0999999
v 0 1.1 -0.0999999
v -0.1 1.4 1.3
v 0.1 1.4 1.3
v -0.1 1.4 0.7
v 0.1 1.4 0.7
v -0.2 1.5 0.7
v 0.2 1.5 0.7
v -0.2 1.5 -0.6
v 0.2 1.5 -0.6

# faces
f 4/3/1 2/3/1 1/3/1
f 5/3/1 2/3/1 4/3/1
f 7/3/1 4/3/1 3/3/1
f 7/3/1 6/3/1 5/3/1
f 7/3/1 5/3/1 4/3/1
f 8/3/1 6/3/1 7/3/1
f 9/3/1 7/3/1 3/3/1
f 9/4/1 8/4/1 7/4/1
f 10/3/1 6/3/1 8/3/1
f 10/4/1 8/4/1 9/4/1
f 12/3/1 9/3/1 3/3/1
f 12/3/1 10/3/1 9/3/1
f 13/3/1 10/3/1 12/3/1
f 14/3/1 6/3/1 10/3/1
f 14/3/1 10/3/1 13/3/1
f 16/3/1 13/3/1 12/3/1
f 16/3/1 12/3/1 11/3/1
f 17/3/1 13/3/1 16/3/1
f 18/4/1 14/4/1 13/4/1
f 18/3/1 13/3/1 17/3/1
f 19/3/1 6/3/1 14/3/1
f 19/4/1 14/4/1 18/4/1
f 21/3/1 18/3/1 17/3/1
f 21/3/1 19/3/1 18/3/1
f 23/3/1 16/3/1 15/3/1
f 24/3/1 16/3/1 23/3/1
f 25/1/1 21/1/1 20/1/1
f 26/3/1 19/3/1 21/3/1
f 26/1/1 21/1/1 25/1/1
f 27/3/1 6/3/1 19/3/1
f 27/3/1 19/3/1 26/3/1
f 29/3/1 24/3/1 23/3/1
f 29/3/1 28/3/1 27/3/1
f 29/3/1 27/3/1 26/3/1
f 29/3/1 26/3/1 25/3/1
f 29/3/1 23/3/1 22/3/1
f 29/3/1 25/3/1 24/3/1
f 30/3/1 28/3/1 29/3/1
f 31/2/1 30/2/1 29/2/1
f 32/2/1 30/2/1 31/2/1
f 35/4/1 34/4/1 33/4/1
f 36/4/1 34/4/1 35/4/1
f 39/3/1 38/3/1 37/3/1
f 40/3/1 38/3/1 39/3/1
f 41/3/2 42/3/2 43/3/2
f 43/3/2 42/3/2 44/3/2
f 45/4/2 46/4/2 47/4/2
f 47/4/2 46/4/2 48/4/2
f 49/3/2 50/3/2 52/3/2
f 52/3/2 50/3/2 53/3/2
f 51/3/2 52/3/2 55/3/2
f 53/3/2 54/3/2 55/3/2
f 52/3/2 53/3/2 55/3/2
f 55/3/2 54/3/2 56/3/2
f 51/3/2 55/3/2 57/3/2
f 55/4/2 56/4/2 57/4/2
f 56/3/2 54/3/2 58/3/2
f 57/4/2 56/4/2 58/4/2
f 51/3/2 57/3/2 60/3/2
f 57/3/2 58/3/2 60/3/2
f 60/3/2 58/3/2 61/3/2
f 58/3/2 54/3/2 62/3/2
f 61/3/2 58/3/2 62/3/2
f 60/3/2 61/3/2 64/3/2
f 59/3/2 60/3/2 64/3/2
f 64/3/2 61/3/2 65/3/2
f 61/4/2 62/4/2 66/4/2
f 65/3/2 61/3/2 66/3/2
f 62/3/2 54/3/2 67/3/2
f 66/4/2 62/4/2 67/4/2
f 65/3/2 66/3/2 69/3/2
f 66/3/2 67/3/2 69/3/2
f 63/3/2 64/3/2 71/3/2
f 71/3/2 64/3/2 72/3/2
f 68/1/2 69/1/2 73/1/2
f 69/3/2 67/3/2 74/3/2
f 73/1/2 69/1/2 74/1/2
f 67/3/2 54/3/2 75/3/2
f 74/3/2 67/3/2 75/3/2
f 71/3/2 72/3/2 77/3/2
f 75/3/2 76/3/2 77/3/2
f 74/3/2 75/3/2 77/3/2
f 73/3/2 74/3/2 77/3/2
f 70/3/2 71/3/2 77/3/2
f 72/3/2 73/3/2 77/3/2
f 77/3/2 76/3/2 78/3/2
f 77/2/2 78/2/2 79/2/2
f 79/2/2 78/2/2 80/2/2
f 83/4/3 82/4/3 81/4/3
f 84/4/3 82/4/3 83/4/3
f 88/3/3 86/3/3 85/3/3
f 88/2/3 87/2/3 86/2/3
f 89/2/3 87/2/3 88/2/3
f 90/3/3 88/3/3 85/3/3
f 91/2/3 87/2/3 89/2/3
f 92/3/3 90/3/3 85/3/3
f 93/2/3 91/2/3 90/2/3
f 93/3/3 90/3/3 92/3/3
f 94/2/3 87/2/3 91/2/3
f 94/2/3 91/2/3 93/2/3
f 97/3/3 96/3/3 95/3/3
f 98/3/3 96/3/3 97/3/3
f 101/3/3 100/3/3 99/3/3
f 102/3/3 100/3/3 101/3/3
f 107/3/3 104/3/3 103/3/3
f 108/3/3 104/3/3 107/3/3
f 109/1/3 106/1/3 105/1/3
f 110/1/3 106/1/3 109/1/3
f 117/3/3 116/3/3 115/3/3
f 118/3/3 116/3/3 117/3/3
f 119/3/3 112/3/3 111/3/3
f 120/3/3 112/3/3 119/3/3
f 121/3/3 114/3/3 113/3/3
f 122/3/3 114/3/3 121/3/3
f 123/3/4 124/3/4 125/3/4
f 125/3/4 124/3/4 126/3/4
f 127/3/4 128/3/4 129/3/4
f 129/3/4 128/3/4 130/3/4
f 131/3/4 132/3/4 133/3/4
f 133/3/4 132/3/4 134/3/4
f 135/3/4 136/3/4 137/3/4
f 137/3/4 136/3/4 138/3/4
f 139/3/4 140/3/4 142/3/4
f 140/2/4 141/2/4 142/2/4
f 142/2/4 141/2/4 143/2/4
f 139/3/4 142/3/4 144/3/4
f 142/3/4 143/3/4 144/3/4
f 143/2/4 141/2/4 145/2/4
f 144/3/4 143/3/4 145/3/4
f 139/3/4 144/3/4 146/3/4
f 144/2/4 145/2/4 147/2/4
f 146/3/4 144/3/4 147/3/4
f 145/2/4 141/2/4 148/2/4
f 147/2/4 145/2/4 148/2/4
f 151/3/5 150/3/5 149/3/5
f 152/3/5 150/3/5 151/3/5
f 155/3/5 154/3/5 153/3/5
f 156/3/5 154/3/5 155/3/5
f 159/3/5 158/3/5 157/3/5
f 160/3/5 158/3/5 159/3/5
f 163/3/5 162/3/5 161/3/5
f 164/3/5 162/3/5 163/3/5
f 167/3/5 166/3/5 165/3/5
f 168/3/5 166/3/5 167/3/5
f 171/1/5 170/1/5 169/1/5
f 172/1/5 170/1/5 171/1/5
f 175/3/5 174/3/5 173/3/5
f 176/3/5 174/3/5 175/3/5
f 179/3/5 178/3/5 177/3/5
f 180/3/5 178/3/5 179/3/5
f 183/3/5 182/3/5 181/3/5
f 184/3/5 182/3/5 183/3/5
f 187/3/5 186/3/5 185/3/5
f 188/3/5 186/3/5 187/3/5
f 191/4/5 190/4/5 189/4/5
f 192/4/5 190/4/5 191/4/5
f 193/3/6 194/3/6 195/3/6
f 195/3/6 194/3/6 196/3/6
f 197/1/6 198/1/6 199/1/6
f 199/1/6 198/1/6 200/1/6
f 201/4/6 202/4/6 203/4/6
f 203/4/6 202/4/6 204/4/6
f 205/2/6 206/2/6 207/2/6
f 207/2/6 206/2/6 208/2/6
